<svg xmlns="http://www.w3.org/2000/svg" xmlns:xlink="http://www.w3.org/1999/xlink" viewBox="0,0,256,256" width="240px" height="240px" fill-rule="nonzero"><defs><linearGradient x1="30.747" y1="15.32" x2="44.819" y2="34.147" gradientUnits="userSpaceOnUse" id="color-1"><stop offset="0" stop-color="#ffda1c"></stop><stop offset="1" stop-color="#feb705"></stop></linearGradient></defs><g fill="none" fill-rule="nonzero" stroke="none" stroke-width="1" stroke-linecap="butt" stroke-linejoin="miter" stroke-miterlimit="10" stroke-dasharray="" stroke-dashoffset="0" font-family="Poppins" font-size="12px" text-anchor="none" style="mix-blend-mode: normal"><g transform="scale(5.33333,5.33333)"><path d="M37,6c0,-1.105 -0.895,-2 -2,-2h-22c-1.105,0 -2,0.895 -2,2v4h26z" fill="#8af7e8"></path><path d="M11,41.72c0,0.996 1.092,1.606 1.94,1.084l11.06,-6.806l11.06,6.806c0.848,0.522 1.94,-0.088 1.94,-1.084v-11.72h-26z" fill="#2aa494"></path><rect x="11" y="18" width="26" height="12" fill="#32c2af"></rect><rect x="11" y="10" width="26" height="8" fill="#40f5dd"></rect><path d="M37,13.868c-0.143,0.134 -0.27,0.287 -0.354,0.476l-2.417,5.419l-5.902,0.623c-0.59,0.063 -1.07,0.454 -1.253,1.019c-0.184,0.565 -0.023,1.164 0.418,1.56l4.408,3.973l-1.232,5.805c-0.093,0.439 0.015,0.892 0.297,1.24c0.28,0.346 0.712,0.553 1.155,0.553c0.256,0 0.512,-0.068 0.741,-0.199l4.139,-2.39z" fill="#000000" opacity="0.05"></path><path d="M37,14.777l-2.431,5.453l-6.188,0.653c-0.392,0.042 -0.71,0.302 -0.831,0.676c-0.122,0.375 -0.015,0.771 0.277,1.034l4.622,4.165l-1.292,6.087c-0.062,0.292 0.01,0.592 0.196,0.822c0.186,0.23 0.473,0.367 0.767,0.367c0.17,0 0.34,-0.046 0.491,-0.132l4.389,-2.532z" fill="#000000" opacity="0.07"></path><path d="M38.442,14.751l2.651,5.946l6.474,0.684c0.417,0.044 0.584,0.56 0.273,0.841l-4.836,4.358l1.351,6.369c0.087,0.41 -0.352,0.729 -0.715,0.52l-5.64,-3.254l-5.639,3.253c-0.363,0.209 -0.802,-0.11 -0.715,-0.52l1.351,-6.369l-4.836,-4.358c-0.311,-0.28 -0.143,-0.797 0.273,-0.841l6.474,-0.684l2.651,-5.946c0.169,-0.381 0.712,-0.381 0.883,0.001z" fill="url(#color-1)"></path></g></g></svg>