<?xml version="1.0" encoding="UTF-8"?>
<svg id="Layer_1" data-name="Layer 1" xmlns="http://www.w3.org/2000/svg" viewBox="0 0 511.95 511.64">
  <path d="M505.69,260.33l-11.73,11.73-125.22,125.23-12.39,12.38c-4.16,4.16-9.62,6.25-15.08,6.25s-10.92-2.09-15.08-6.25c-8.34-8.34-8.34-21.83,0-30.17l12.38-12.38-81.93-81.93L36.42,505.39c-4.16,4.16-9.63,6.25-15.09,6.25s-10.92-2.09-15.08-6.25c-8.34-8.34-8.34-21.82,0-30.17L226.45,255.05l-81.65-81.65-12.36,12.36c-4.16,4.16-9.62,6.25-15.09,6.25s-10.92-2.09-15.08-6.25c-8.34-8.34-8.34-21.82,0-30.16L251.61,6.25c8.34-8.34,21.82-8.34,30.16,0,8.34,8.34,8.34,21.83,0,30.17l-11.73,11.73,193.75,193.75,11.73-11.73c8.34-8.34,21.82-8.34,30.17,0,8.34,8.34,8.34,21.82,0,30.16Z"/>
  <rect x="342.83" y="334.67" width="177.09" height=".07" transform="translate(-110.32 403.09) rotate(-45)"/>
</svg>