<?xml version="1.0" encoding="UTF-8"?>
<svg id="Layer_1" data-name="Layer 1" xmlns="http://www.w3.org/2000/svg" viewBox="0 0 511.97 511.64">
  <path d="M505.71,230.15l-.02,.02c-8.35-8.34-21.83-8.34-30.17,0l-11.71,11.71L270.06,48.13l11.71-11.71c.63-.63,1.21-1.29,1.74-1.97,6.55-8.37,5.97-20.49-1.74-28.2-8.34-8.34-21.82-8.34-30.16,0l-41.7,41.7-65.57,65.57-42.07,42.07c-8.34,8.34-8.34,21.82,0,30.16,4.16,4.16,9.62,6.25,15.08,6.25,3,0,6-.63,8.79-1.89,2.29-1.03,4.42-2.48,6.3-4.36l12.39-12.39,81.64,81.64L6.25,475.23c-8.34,8.35-8.34,21.83,0,30.17,4.16,4.16,9.62,6.25,15.08,6.25s10.93-2.09,15.09-6.25l220.22-220.22,81.62,81.62,.32,.32-12.37,12.37c-8.34,8.34-8.34,21.82,0,30.17,4.16,4.16,9.62,6.25,15.08,6.25s10.92-2.09,15.08-6.25l149.34-149.34c8.34-8.34,8.34-21.82,0-30.16Zm-72.07,41.9l-64.89,64.89-.59-.59-.49,.5L173.79,142.98l65.93-65.21,192.94,192.94-.19,.18,1.17,1.17Z"/>
</svg>