<svg xmlns="http://www.w3.org/2000/svg" version="1.1" xmlns:xlink="http://www.w3.org/1999/xlink" xmlns:svgjs="http://svgjs.com/svgjs" width="512" height="512" x="0" y="0" viewBox="0 0 60 60" style="enable-background:new 0 0 512 512" xml:space="preserve" class=""><g><path fill="#e1eeff" d="M47 9v14.26L22 45H4a3 3 0 0 1-3-3V9l1-1h44z" data-original="#e1eeff" class=""></path><path fill="#49508e" d="M47 4v5H1V4a3 3 0 0 1 3-3h40a3 3 0 0 1 3 3z" data-original="#49508e" class=""></path><path fill="#a8724e" d="m50.951 46.71 7.171 7.17a3 3 0 0 1 0 4.24 2.995 2.995 0 0 1-4.241 0l-7.171-7.17z" data-original="#a8724e"></path><circle cx="37" cy="37" r="17" fill="#49508e" data-original="#49508e" class=""></circle><path fill="#ffffff" d="M6 6H5a1 1 0 0 1 0-2h1a1 1 0 0 1 0 2zM11 6h-1a1 1 0 0 1 0-2h1a1 1 0 0 1 0 2zM16 6h-1a1 1 0 0 1 0-2h1a1 1 0 0 1 0 2z" data-original="#ffffff"></path><g fill="#b1cbdd"><path d="M6 14H5a1 1 0 0 1 0-2h1a1 1 0 0 1 0 2zM6 18H5a1 1 0 0 1 0-2h1a1 1 0 0 1 0 2zM6 22H5a1 1 0 0 1 0-2h1a1 1 0 0 1 0 2zM6 26H5a1 1 0 0 1 0-2h1a1 1 0 0 1 0 2zM6 30H5a1 1 0 0 1 0-2h1a1 1 0 0 1 0 2zM6 34H5a1 1 0 0 1 0-2h1a1 1 0 0 1 0 2zM6 38H5a1 1 0 0 1 0-2h1a1 1 0 0 1 0 2zM6 42H5a1 1 0 0 1 0-2h1a1 1 0 0 1 0 2z" fill="#b1cbdd" data-original="#b1cbdd"></path></g><path fill="#2e3360" d="M43 6h-6a1 1 0 0 1 0-2h6a1 1 0 0 1 0 2z" data-original="#2e3360" class=""></path><path fill="#b1cbdd" d="M10 40a1 1 0 0 1-1-1V13a1 1 0 0 1 2 0v26a1 1 0 0 1-1 1z" data-original="#b1cbdd"></path><path fill="#66caa4" d="M24 14H14a1 1 0 0 1 0-2h10a1 1 0 0 1 0 2zM26 18H16a1 1 0 0 1 0-2h10a1 1 0 0 1 0 2z" data-original="#66caa4"></path><path fill="#f9c84e" d="M33 18h-3a1 1 0 0 1 0-2h3a1 1 0 0 1 0 2z" data-original="#f9c84e"></path><path fill="#66caa4" d="M24 22h-7a1 1 0 0 1 0-2h7a1 1 0 0 1 0 2z" data-original="#66caa4"></path><path fill="#ffffff" d="M47 32h-2a1 1 0 0 1 0-2h2a1 1 0 0 1 0 2z" data-original="#ffffff"></path><path fill="#f9c84e" d="M31 32h-4a1 1 0 0 1 0-2h4a1 1 0 0 1 0 2z" data-original="#f9c84e"></path><path fill="#66caa4" d="M22 30h-6a1 1 0 0 1 0-2h6a1 1 0 0 1 0 2z" data-original="#66caa4"></path><path fill="#eb6374" d="M41 32h-6a1 1 0 0 1 0-2h6a1 1 0 0 1 0 2z" data-original="#eb6374"></path><path fill="#f9c84e" d="M37 36H25a1 1 0 0 1 0-2h12a1 1 0 0 1 0 2z" data-original="#f9c84e"></path><path fill="#66caa4" d="M20.474 34H17a1 1 0 0 1 0-2h3.474a1 1 0 1 1 0 2z" data-original="#66caa4"></path><path fill="#f9c84e" d="M31 28h-1a1 1 0 0 1 0-2h1a1 1 0 0 1 0 2z" data-original="#f9c84e"></path><path fill="#66caa4" d="M24.958 26H14a1 1 0 0 1 0-2h10.958a1 1 0 0 1 0 2z" data-original="#66caa4"></path><path fill="#ffffff" d="M47 44h-2a1 1 0 0 1 0-2h2a1 1 0 0 1 0 2z" data-original="#ffffff"></path><path fill="#f9c84e" d="M31 44h-5a1 1 0 0 1 0-2h5a1 1 0 0 1 0 2z" data-original="#f9c84e"></path><path fill="#66caa4" d="M20.474 42H16a1 1 0 0 1 0-2h4.474a1 1 0 1 1 0 2z" data-original="#66caa4"></path><path fill="#eb6374" d="M41 44h-6a1 1 0 0 1 0-2h6a1 1 0 0 1 0 2z" data-original="#eb6374"></path><path fill="#f9c84e" d="M29 40h-4a1 1 0 0 1 0-2h4a1 1 0 0 1 0 2z" data-original="#f9c84e"></path><path fill="#66caa4" d="M20 38h-6a1 1 0 0 1 0-2h6a1 1 0 0 1 0 2z" data-original="#66caa4"></path><path fill="#c0daf0" d="M37 55a18 18 0 1 1 18-18 18.021 18.021 0 0 1-18 18zm0-34a16 16 0 1 0 16 16 16.019 16.019 0 0 0-16-16z" data-original="#c0daf0"></path></g></svg>